<mxfile host="app.diagrams.net" modified="2023-03-19T07:27:50.674Z" agent="5.0 (Windows NT 10.0; Win64; x64) AppleWebKit/537.36 (KHTML, like Gecko) Chrome/111.0.0.0 Safari/537.36" etag="EmR1D-B4mn3OEYvYqknL" version="21.0.6" type="github">
  <diagram name="第 1 页" id="pmHs8UpMBzQuUNmr3AvG">
    <mxGraphModel dx="1221" dy="676" grid="1" gridSize="10" guides="1" tooltips="1" connect="1" arrows="1" fold="1" page="1" pageScale="1" pageWidth="827" pageHeight="1169" math="0" shadow="0">
      <root>
        <mxCell id="0" />
        <mxCell id="1" parent="0" />
        <mxCell id="Ih1NZP5t_pB03FKLAn0f-21" value="" style="rounded=0;whiteSpace=wrap;html=1;" vertex="1" parent="1">
          <mxGeometry x="83" y="320" width="217" height="160" as="geometry" />
        </mxCell>
        <mxCell id="Ih1NZP5t_pB03FKLAn0f-1" value="&lt;pre style=&quot;background-color:#ffffff;color:#080808;font-family:&#39;JetBrains Mono&#39;,monospace;font-size:12.0pt;&quot;&gt;private static final &lt;span style=&quot;color:#000000;&quot;&gt;ThreadLocal&lt;/span&gt;&amp;lt;&lt;span style=&quot;color:#000000;&quot;&gt;String&lt;/span&gt;&amp;gt; &lt;span style=&quot;color:#871094;font-style:italic;&quot;&gt;THREAD_LOCAL &lt;/span&gt;= &lt;/pre&gt;&lt;pre style=&quot;background-color:#ffffff;color:#080808;font-family:&#39;JetBrains Mono&#39;,monospace;font-size:12.0pt;&quot;&gt;&lt;span style=&quot;color:#0033b3;&quot;&gt;new &lt;/span&gt;InheritableThreadLocal&amp;lt;&amp;gt;();&lt;/pre&gt;" style="rounded=0;whiteSpace=wrap;html=1;" vertex="1" parent="1">
          <mxGeometry x="190" y="20" width="520" height="60" as="geometry" />
        </mxCell>
        <mxCell id="Ih1NZP5t_pB03FKLAn0f-2" value="&lt;pre style=&quot;background-color: rgb(255, 255, 255); font-family: &amp;quot;JetBrains Mono&amp;quot;, monospace; font-size: 12pt;&quot;&gt;&lt;span style=&quot;color: rgb(8, 8, 8);&quot;&gt;private static final &lt;span style=&quot;color:#000000;&quot;&gt;ThreadLocal&lt;/span&gt;&amp;lt;&lt;span style=&quot;color:#000000;&quot;&gt;String&lt;/span&gt;&amp;gt; &lt;/span&gt;&lt;font color=&quot;#99004d&quot;&gt;TTL_THREAD_LOCAL&lt;/font&gt;&lt;font color=&quot;#080808&quot;&gt; = &lt;br&gt;&lt;/font&gt;&lt;/pre&gt;&lt;pre style=&quot;background-color:#ffffff;color:#080808;font-family:&#39;JetBrains Mono&#39;,monospace;font-size:12.0pt;&quot;&gt;new TransmittableThreadLocal&amp;lt;&amp;gt;()&lt;/pre&gt;" style="rounded=0;whiteSpace=wrap;html=1;" vertex="1" parent="1">
          <mxGeometry x="185" y="90" width="530" height="70" as="geometry" />
        </mxCell>
        <mxCell id="Ih1NZP5t_pB03FKLAn0f-3" value="&lt;pre style=&quot;background-color:#ffffff;color:#080808;font-family:&#39;JetBrains Mono&#39;,monospace;font-size:12.0pt;&quot;&gt;InheritableThreadLocal&amp;lt;&lt;span style=&quot;font-size: 12pt; color: rgb(0, 0, 0);&quot;&gt;WeakHashMap&lt;/span&gt;&lt;span style=&quot;font-size: 12pt;&quot;&gt;&amp;lt;&lt;/span&gt;&lt;span style=&quot;font-size: 12pt; color: rgb(0, 0, 0);&quot;&gt;TransmittableThreadLocal&lt;/span&gt;&lt;span style=&quot;font-size: 12pt;&quot;&gt;&amp;lt;&lt;/span&gt;&lt;span style=&quot;font-size: 12pt; color: rgb(0, 0, 0);&quot;&gt;Object&lt;/span&gt;&lt;span style=&quot;font-size: 12pt;&quot;&gt;&amp;gt;, ?&amp;gt;&amp;gt; &lt;/span&gt;&lt;span style=&quot;font-size: 12pt; color: rgb(135, 16, 148); font-style: italic;&quot;&gt;holder&lt;/span&gt;&lt;span style=&quot;color:#871094;font-style:italic;&quot;&gt; &lt;/span&gt;= &lt;/pre&gt;&lt;pre style=&quot;background-color:#ffffff;color:#080808;font-family:&#39;JetBrains Mono&#39;,monospace;font-size:12.0pt;&quot;&gt;&lt;span style=&quot;color:#0033b3;&quot;&gt;new &lt;/span&gt;InheritableThreadLocal&amp;lt;&amp;gt;();&lt;/pre&gt;" style="rounded=0;whiteSpace=wrap;html=1;" vertex="1" parent="1">
          <mxGeometry x="97" y="170" width="730" height="70" as="geometry" />
        </mxCell>
        <mxCell id="Ih1NZP5t_pB03FKLAn0f-20" style="edgeStyle=orthogonalEdgeStyle;rounded=0;orthogonalLoop=1;jettySize=auto;html=1;exitX=0;exitY=0.5;exitDx=0;exitDy=0;entryX=0;entryY=0.5;entryDx=0;entryDy=0;" edge="1" parent="1" source="Ih1NZP5t_pB03FKLAn0f-5" target="Ih1NZP5t_pB03FKLAn0f-1">
          <mxGeometry relative="1" as="geometry" />
        </mxCell>
        <mxCell id="Ih1NZP5t_pB03FKLAn0f-5" value="&lt;pre style=&quot;border-color: var(--border-color); background-color: rgb(255, 255, 255); color: rgb(8, 8, 8); font-family: &amp;quot;JetBrains Mono&amp;quot;, monospace;&quot;&gt;&lt;font style=&quot;font-size: 12px;&quot;&gt;THREAD_LOCAL&lt;/font&gt;&lt;/pre&gt;" style="rounded=0;whiteSpace=wrap;html=1;" vertex="1" parent="1">
          <mxGeometry x="95" y="360" width="95" height="30" as="geometry" />
        </mxCell>
        <mxCell id="Ih1NZP5t_pB03FKLAn0f-6" value="&lt;pre style=&quot;background-color: rgb(255, 255, 255); color: rgb(8, 8, 8); font-family: &amp;quot;JetBrains Mono&amp;quot;, monospace; font-size: 12px;&quot;&gt;init1&lt;br style=&quot;font-size: 12px;&quot;&gt;&lt;/pre&gt;" style="rounded=0;whiteSpace=wrap;html=1;fontSize=12;" vertex="1" parent="1">
          <mxGeometry x="190" y="360" width="95" height="30" as="geometry" />
        </mxCell>
        <mxCell id="Ih1NZP5t_pB03FKLAn0f-19" style="edgeStyle=orthogonalEdgeStyle;rounded=0;orthogonalLoop=1;jettySize=auto;html=1;exitX=0;exitY=0.5;exitDx=0;exitDy=0;entryX=0;entryY=0.5;entryDx=0;entryDy=0;" edge="1" parent="1" source="Ih1NZP5t_pB03FKLAn0f-7" target="Ih1NZP5t_pB03FKLAn0f-2">
          <mxGeometry relative="1" as="geometry" />
        </mxCell>
        <mxCell id="Ih1NZP5t_pB03FKLAn0f-7" value="&lt;pre style=&quot;border-color: var(--border-color); background-color: rgb(255, 255, 255); font-family: &amp;quot;JetBrains Mono&amp;quot;, monospace;&quot;&gt;&lt;font style=&quot;border-color: var(--border-color); font-size: 10px;&quot; color=&quot;#99004d&quot;&gt;TTL_THREAD_LOCAL&lt;/font&gt;&lt;/pre&gt;" style="rounded=0;whiteSpace=wrap;html=1;" vertex="1" parent="1">
          <mxGeometry x="95" y="390" width="95" height="30" as="geometry" />
        </mxCell>
        <mxCell id="Ih1NZP5t_pB03FKLAn0f-8" value="&lt;pre style=&quot;background-color: rgb(255, 255, 255); color: rgb(8, 8, 8); font-family: &amp;quot;JetBrains Mono&amp;quot;, monospace; font-size: 12px;&quot;&gt;ttl-init1&lt;br style=&quot;font-size: 12px;&quot;&gt;&lt;/pre&gt;" style="rounded=0;whiteSpace=wrap;html=1;fontSize=12;" vertex="1" parent="1">
          <mxGeometry x="190" y="390" width="95" height="30" as="geometry" />
        </mxCell>
        <mxCell id="Ih1NZP5t_pB03FKLAn0f-18" style="edgeStyle=orthogonalEdgeStyle;rounded=0;orthogonalLoop=1;jettySize=auto;html=1;exitX=0;exitY=0.5;exitDx=0;exitDy=0;entryX=0;entryY=0.5;entryDx=0;entryDy=0;" edge="1" parent="1" source="Ih1NZP5t_pB03FKLAn0f-9" target="Ih1NZP5t_pB03FKLAn0f-3">
          <mxGeometry relative="1" as="geometry" />
        </mxCell>
        <mxCell id="Ih1NZP5t_pB03FKLAn0f-9" value="&lt;pre style=&quot;border-color: var(--border-color); background-color: rgb(255, 255, 255); color: rgb(8, 8, 8); font-family: &amp;quot;JetBrains Mono&amp;quot;, monospace;&quot;&gt;&lt;font style=&quot;font-size: 14px;&quot;&gt;holder&lt;/font&gt;&lt;/pre&gt;" style="rounded=0;whiteSpace=wrap;html=1;" vertex="1" parent="1">
          <mxGeometry x="95" y="420" width="95" height="30" as="geometry" />
        </mxCell>
        <mxCell id="Ih1NZP5t_pB03FKLAn0f-17" style="edgeStyle=orthogonalEdgeStyle;rounded=0;orthogonalLoop=1;jettySize=auto;html=1;exitX=1;exitY=0.5;exitDx=0;exitDy=0;entryX=0;entryY=0.25;entryDx=0;entryDy=0;" edge="1" parent="1" source="Ih1NZP5t_pB03FKLAn0f-10" target="Ih1NZP5t_pB03FKLAn0f-11">
          <mxGeometry relative="1" as="geometry" />
        </mxCell>
        <mxCell id="Ih1NZP5t_pB03FKLAn0f-10" value="" style="rounded=0;whiteSpace=wrap;html=1;" vertex="1" parent="1">
          <mxGeometry x="190" y="420" width="95" height="30" as="geometry" />
        </mxCell>
        <mxCell id="Ih1NZP5t_pB03FKLAn0f-38" style="edgeStyle=orthogonalEdgeStyle;rounded=0;orthogonalLoop=1;jettySize=auto;html=1;exitX=0.5;exitY=0;exitDx=0;exitDy=0;entryX=0.5;entryY=1;entryDx=0;entryDy=0;" edge="1" parent="1" source="Ih1NZP5t_pB03FKLAn0f-11" target="Ih1NZP5t_pB03FKLAn0f-3">
          <mxGeometry relative="1" as="geometry" />
        </mxCell>
        <mxCell id="Ih1NZP5t_pB03FKLAn0f-11" value="&lt;pre style=&quot;border-color: var(--border-color); background-color: rgb(255, 255, 255); font-family: &amp;quot;JetBrains Mono&amp;quot;, monospace;&quot;&gt;&lt;font style=&quot;border-color: var(--border-color); font-size: 10px;&quot; color=&quot;#99004d&quot;&gt;TTL_THREAD_LOCAL&lt;/font&gt;&lt;/pre&gt;" style="rounded=0;whiteSpace=wrap;html=1;" vertex="1" parent="1">
          <mxGeometry x="380" y="370" width="95" height="30" as="geometry" />
        </mxCell>
        <mxCell id="Ih1NZP5t_pB03FKLAn0f-12" value="" style="rounded=0;whiteSpace=wrap;html=1;" vertex="1" parent="1">
          <mxGeometry x="475" y="370" width="95" height="30" as="geometry" />
        </mxCell>
        <mxCell id="Ih1NZP5t_pB03FKLAn0f-13" value="" style="rounded=0;whiteSpace=wrap;html=1;" vertex="1" parent="1">
          <mxGeometry x="475" y="400" width="95" height="30" as="geometry" />
        </mxCell>
        <mxCell id="Ih1NZP5t_pB03FKLAn0f-14" value="" style="rounded=0;whiteSpace=wrap;html=1;" vertex="1" parent="1">
          <mxGeometry x="380" y="430" width="95" height="30" as="geometry" />
        </mxCell>
        <mxCell id="Ih1NZP5t_pB03FKLAn0f-15" value="" style="rounded=0;whiteSpace=wrap;html=1;" vertex="1" parent="1">
          <mxGeometry x="475" y="430" width="95" height="30" as="geometry" />
        </mxCell>
        <mxCell id="Ih1NZP5t_pB03FKLAn0f-16" value="" style="rounded=0;whiteSpace=wrap;html=1;" vertex="1" parent="1">
          <mxGeometry x="380" y="400" width="95" height="30" as="geometry" />
        </mxCell>
        <mxCell id="Ih1NZP5t_pB03FKLAn0f-22" value="" style="rounded=0;whiteSpace=wrap;html=1;" vertex="1" parent="1">
          <mxGeometry x="650" y="325" width="217" height="160" as="geometry" />
        </mxCell>
        <mxCell id="Ih1NZP5t_pB03FKLAn0f-23" value="&lt;div style=&quot;border-color: var(--border-color); background-color: rgb(255, 255, 255); color: rgb(8, 8, 8); font-size: 9px;&quot;&gt;&lt;font style=&quot;font-size: 9px;&quot;&gt;THREAD_LOCAL&lt;/font&gt;&lt;/div&gt;" style="rounded=0;whiteSpace=wrap;html=1;fontSize=9;fontFamily=Helvetica;fontStyle=0" vertex="1" parent="1">
          <mxGeometry x="662" y="365" width="95" height="30" as="geometry" />
        </mxCell>
        <mxCell id="Ih1NZP5t_pB03FKLAn0f-24" value="&lt;div style=&quot;border-color: var(--border-color); background-color: rgb(255, 255, 255); color: rgb(8, 8, 8); font-size: 12px;&quot;&gt;init1&lt;/div&gt;" style="rounded=0;whiteSpace=wrap;html=1;fontSize=12;fontFamily=Helvetica;fontStyle=0" vertex="1" parent="1">
          <mxGeometry x="757" y="365" width="95" height="30" as="geometry" />
        </mxCell>
        <mxCell id="Ih1NZP5t_pB03FKLAn0f-25" value="&lt;pre style=&quot;border-color: var(--border-color); background-color: rgb(255, 255, 255); font-family: &amp;quot;JetBrains Mono&amp;quot;, monospace; font-size: 9px;&quot;&gt;&lt;font style=&quot;border-color: var(--border-color); font-size: 9px;&quot; color=&quot;#99004d&quot;&gt;TTL_THREAD_LOCAL&lt;/font&gt;&lt;/pre&gt;" style="rounded=0;whiteSpace=wrap;html=1;fontStyle=0;fontSize=9;" vertex="1" parent="1">
          <mxGeometry x="662" y="395" width="95" height="30" as="geometry" />
        </mxCell>
        <mxCell id="Ih1NZP5t_pB03FKLAn0f-26" value="&lt;div style=&quot;border-color: var(--border-color); background-color: rgb(255, 255, 255); color: rgb(8, 8, 8); font-size: 12px;&quot;&gt;ttl-init1&lt;/div&gt;" style="rounded=0;whiteSpace=wrap;html=1;fontSize=12;fontFamily=Helvetica;fontStyle=0" vertex="1" parent="1">
          <mxGeometry x="757" y="395" width="95" height="30" as="geometry" />
        </mxCell>
        <mxCell id="Ih1NZP5t_pB03FKLAn0f-27" value="&lt;div style=&quot;border-color: var(--border-color); background-color: rgb(255, 255, 255); color: rgb(8, 8, 8); font-size: 11px;&quot;&gt;&lt;font style=&quot;font-size: 11px;&quot;&gt;holder&lt;/font&gt;&lt;/div&gt;" style="rounded=0;whiteSpace=wrap;html=1;fontSize=11;fontFamily=Helvetica;fontStyle=0" vertex="1" parent="1">
          <mxGeometry x="662" y="425" width="95" height="30" as="geometry" />
        </mxCell>
        <mxCell id="Ih1NZP5t_pB03FKLAn0f-28" style="edgeStyle=orthogonalEdgeStyle;rounded=0;orthogonalLoop=1;jettySize=auto;html=1;exitX=1;exitY=0.5;exitDx=0;exitDy=0;entryX=0;entryY=0.25;entryDx=0;entryDy=0;fontStyle=0" edge="1" source="Ih1NZP5t_pB03FKLAn0f-29" target="Ih1NZP5t_pB03FKLAn0f-30" parent="1">
          <mxGeometry relative="1" as="geometry" />
        </mxCell>
        <mxCell id="Ih1NZP5t_pB03FKLAn0f-29" value="" style="rounded=0;whiteSpace=wrap;html=1;fontStyle=0" vertex="1" parent="1">
          <mxGeometry x="757" y="425" width="95" height="30" as="geometry" />
        </mxCell>
        <mxCell id="Ih1NZP5t_pB03FKLAn0f-39" style="edgeStyle=orthogonalEdgeStyle;rounded=0;orthogonalLoop=1;jettySize=auto;html=1;exitX=0.5;exitY=0;exitDx=0;exitDy=0;entryX=1;entryY=0.25;entryDx=0;entryDy=0;" edge="1" parent="1" source="Ih1NZP5t_pB03FKLAn0f-30" target="Ih1NZP5t_pB03FKLAn0f-3">
          <mxGeometry relative="1" as="geometry" />
        </mxCell>
        <mxCell id="Ih1NZP5t_pB03FKLAn0f-30" value="&lt;div style=&quot;border-color: var(--border-color); background-color: rgb(255, 255, 255); font-size: 9px;&quot;&gt;&lt;font style=&quot;border-color: var(--border-color); font-size: 9px;&quot; color=&quot;#99004d&quot;&gt;TTL_THREAD_LOCAL&lt;/font&gt;&lt;/div&gt;" style="rounded=0;whiteSpace=wrap;html=1;fontSize=9;fontFamily=Helvetica;fontStyle=0" vertex="1" parent="1">
          <mxGeometry x="947" y="375" width="95" height="30" as="geometry" />
        </mxCell>
        <mxCell id="Ih1NZP5t_pB03FKLAn0f-31" value="" style="rounded=0;whiteSpace=wrap;html=1;fontStyle=0" vertex="1" parent="1">
          <mxGeometry x="1042" y="375" width="95" height="30" as="geometry" />
        </mxCell>
        <mxCell id="Ih1NZP5t_pB03FKLAn0f-32" value="" style="rounded=0;whiteSpace=wrap;html=1;fontStyle=0" vertex="1" parent="1">
          <mxGeometry x="1042" y="405" width="95" height="30" as="geometry" />
        </mxCell>
        <mxCell id="Ih1NZP5t_pB03FKLAn0f-33" value="" style="rounded=0;whiteSpace=wrap;html=1;fontStyle=0" vertex="1" parent="1">
          <mxGeometry x="947" y="435" width="95" height="30" as="geometry" />
        </mxCell>
        <mxCell id="Ih1NZP5t_pB03FKLAn0f-34" value="" style="rounded=0;whiteSpace=wrap;html=1;fontStyle=0" vertex="1" parent="1">
          <mxGeometry x="1042" y="435" width="95" height="30" as="geometry" />
        </mxCell>
        <mxCell id="Ih1NZP5t_pB03FKLAn0f-35" value="" style="rounded=0;whiteSpace=wrap;html=1;fontStyle=0" vertex="1" parent="1">
          <mxGeometry x="947" y="405" width="95" height="30" as="geometry" />
        </mxCell>
        <mxCell id="Ih1NZP5t_pB03FKLAn0f-36" value="main" style="text;html=1;strokeColor=none;fillColor=none;align=center;verticalAlign=middle;whiteSpace=wrap;rounded=0;" vertex="1" parent="1">
          <mxGeometry x="160" y="330" width="60" height="30" as="geometry" />
        </mxCell>
        <mxCell id="Ih1NZP5t_pB03FKLAn0f-37" value="thread1" style="text;html=1;strokeColor=none;fillColor=none;align=center;verticalAlign=middle;whiteSpace=wrap;rounded=0;" vertex="1" parent="1">
          <mxGeometry x="728.5" y="335" width="60" height="30" as="geometry" />
        </mxCell>
      </root>
    </mxGraphModel>
  </diagram>
</mxfile>
